<svg viewBox="0 0 512 512" height="512" width="512" xmlns="http://www.w3.org/2000/svg" xmlns:xlink="http://www.w3.org/1999/xlink"><rect x="0" y="0" width="512" height="512" fill="#e5e7eb"></rect><path d="M 82.75 25 L 198.25 25" stroke-width="50" stroke="#E14389" fill="none"></path><path d="M 198.25 25 L 313.75 25" stroke-width="50" stroke="#A855F7" fill="none"></path><path d="M 313.75 25 L 429.25 25" stroke-width="50" stroke="#0EA5E9" fill="none"></path><path d="M 429.25 25 L 487 25 L 487 82.75" stroke-width="50" stroke="#7C3AED" fill="none"></path><path d="M 487 82.75 L 487 198.25" stroke-width="50" stroke="#84CC16" fill="none"></path><path d="M 487 198.25 L 487 313.75" stroke-width="50" stroke="#0284C7" fill="none"></path><path d="M 487 313.75 L 487 429.25" stroke-width="50" stroke="#8464A0" fill="none"></path><path d="M 487 429.25 L 487 487 L 429.25 487" stroke-width="50" stroke="#10B981" fill="none"></path><path d="M 429.25 487 L 313.75 487" stroke-width="50" stroke="#F43F5E" fill="none"></path><path d="M 313.75 487 L 198.25 487" stroke-width="50" stroke="#6366F1" fill="none"></path><path d="M 198.25 487 L 82.75 487" stroke-width="50" stroke="#14B8A6" fill="none"></path><path d="M 82.75 487 L 25 487 L 25 429.25" stroke-width="50" stroke="#22C55E" fill="none"></path><path d="M 25 429.25 L 25 313.75" stroke-width="50" stroke="#EF4444" fill="none"></path><path d="M 25 313.75 L 25 198.25" stroke-width="50" stroke="#D946EF" fill="none"></path><path d="M 25 198.25 L 25 82.75" stroke-width="50" stroke="#06B6D4" fill="none"></path><path d="M 25 82.75 L 25 25 L 82.75 25" stroke-width="50" stroke="#F59E0B" fill="none"></path><line x1="82.75" y1="0" x2="82.75" y2="50" stroke-width="4" stroke="#25282c"></line><line x1="198.25" y1="0" x2="198.25" y2="50" stroke-width="4" stroke="#25282c"></line><line x1="313.75" y1="0" x2="313.75" y2="50" stroke-width="4" stroke="#25282c"></line><line x1="429.25" y1="0" x2="429.25" y2="50" stroke-width="4" stroke="#25282c"></line><line x1="82.75" y1="462" x2="82.75" y2="512" stroke-width="4" stroke="#25282c"></line><line x1="198.25" y1="462" x2="198.25" y2="512" stroke-width="4" stroke="#25282c"></line><line x1="313.75" y1="462" x2="313.75" y2="512" stroke-width="4" stroke="#25282c"></line><line x1="429.25" y1="462" x2="429.25" y2="512" stroke-width="4" stroke="#25282c"></line><line x1="0" y1="82.75" x2="50" y2="82.75" stroke-width="4" stroke="#25282c"></line><line x1="0" y1="198.25" x2="50" y2="198.25" stroke-width="4" stroke="#25282c"></line><line x1="0" y1="313.75" x2="50" y2="313.75" stroke-width="4" stroke="#25282c"></line><line x1="0" y1="429.25" x2="50" y2="429.25" stroke-width="4" stroke="#25282c"></line><line x1="462" y1="82.75" x2="512" y2="82.75" stroke-width="4" stroke="#25282c"></line><line x1="462" y1="198.25" x2="512" y2="198.25" stroke-width="4" stroke="#25282c"></line><line x1="462" y1="313.75" x2="512" y2="313.75" stroke-width="4" stroke="#25282c"></line><line x1="462" y1="429.25" x2="512" y2="429.25" stroke-width="4" stroke="#25282c"></line><rect x="2" y="2" width="508" height="508" stroke-width="4" stroke="#25282c" fill="none"></rect><rect x="50" y="50" width="412" height="412" stroke-width="4" stroke="#25282c" fill="none"></rect><line x1="50" y1="50" x2="462" y2="462" stroke-width="4" stroke="#25282c"></line><line x1="50" y1="462" x2="462" y2="50" stroke-width="4" stroke="#25282c"></line><line x1="50" y1="256" x2="256" y2="50" stroke-width="4" stroke="#25282c"></line><line x1="256" y1="462" x2="462" y2="256" stroke-width="4" stroke="#25282c"></line><line x1="50" y1="256" x2="256" y2="462" stroke-width="4" stroke="#25282c"></line><line x1="256" y1="50" x2="462" y2="256" stroke-width="4" stroke="#25282c"></line><circle cx="195.42640687119285" cy="110.57359312880715" r="16" fill="#E14389" stroke-width="4" stroke="#25282c"></circle><circle cx="196.84062043356596" cy="196.84062043356596" r="16" fill="#A855F7" stroke-width="4" stroke="#25282c"></circle><circle cx="107.74516600406096" cy="198.25483399593904" r="16" fill="#0EA5E9" stroke-width="4" stroke="#25282c"></circle><circle cx="106.33095244168786" cy="106.33095244168787" r="16" fill="#7C3AED" stroke-width="4" stroke="#25282c"></circle><circle cx="407.0832611206852" cy="104.91673887931478" r="16" fill="#84CC16" stroke-width="4" stroke="#25282c"></circle><circle cx="408.49747468305833" cy="202.49747468305833" r="16" fill="#0284C7" stroke-width="4" stroke="#25282c"></circle><circle cx="308.08831175456856" cy="203.91168824543144" r="16" fill="#8464A0" stroke-width="4" stroke="#25282c"></circle><circle cx="306.67409819219546" cy="100.67409819219549" r="16" fill="#10B981" stroke-width="4" stroke="#25282c"></circle><circle cx="412.7401153701776" cy="305.2598846298224" r="16" fill="#F43F5E" stroke-width="4" stroke="#25282c"></circle><circle cx="414.1543289325507" cy="414.1543289325507" r="16" fill="#6366F1" stroke-width="4" stroke="#25282c"></circle><circle cx="302.4314575050762" cy="415.5685424949238" r="16" fill="#14B8A6" stroke-width="4" stroke="#25282c"></circle><circle cx="301.0172439427031" cy="301.0172439427031" r="16" fill="#22C55E" stroke-width="4" stroke="#25282c"></circle><circle cx="212.39696961967" cy="299.60303038033" r="16" fill="#EF4444" stroke-width="4" stroke="#25282c"></circle><circle cx="213.8111831820431" cy="419.81118318204307" r="16" fill="#D946EF" stroke-width="4" stroke="#25282c"></circle><circle cx="90.77460325558383" cy="421.2253967444162" r="16" fill="#06B6D4" stroke-width="4" stroke="#25282c"></circle><circle cx="89.3603896932107" cy="295.3603896932107" r="16" fill="#F59E0B" stroke-width="4" stroke="#25282c"></circle><circle r="24" cx="153" cy="153" stroke-width="4" stroke="#25282c" fill="#4b5563"></circle><circle r="24" cx="359" cy="153" stroke-width="4" stroke="#25282c" fill="#4b5563"></circle><circle r="24" cx="359" cy="359" stroke-width="4" stroke="#25282c" fill="#4b5563"></circle><circle r="24" cx="153" cy="359" stroke-width="4" stroke="#25282c" fill="#4b5563"></circle><circle r="24" cx="256" cy="256" stroke-width="4" stroke="#25282c" fill="#4b5563"></circle></svg>