<svg viewBox="0 0 512 512" height="512" width="512" xmlns="http://www.w3.org/2000/svg" xmlns:xlink="http://www.w3.org/1999/xlink"><rect x="0" y="0" width="512" height="512" fill="#fecdd3"></rect><path d="M 82.75 25 L 198.25 25" stroke-width="50" stroke="#EF4444" fill="none"></path><path d="M 198.25 25 L 313.75 25" stroke-width="50" stroke="#3B82F6" fill="none"></path><path d="M 313.75 25 L 429.25 25" stroke-width="50" stroke="#8B5CF6" fill="none"></path><path d="M 429.25 25 L 487 25 L 487 82.75" stroke-width="50" stroke="#F59E0B" fill="none"></path><path d="M 487 82.75 L 487 198.25" stroke-width="50" stroke="#F59E0B" fill="none"></path><path d="M 487 198.25 L 487 313.75" stroke-width="50" stroke="#8B5CF6" fill="none"></path><path d="M 487 313.75 L 487 429.25" stroke-width="50" stroke="#7C3AED" fill="none"></path><path d="M 487 429.25 L 487 487 L 429.25 487" stroke-width="50" stroke="#F56420" fill="none"></path><path d="M 429.25 487 L 313.75 487" stroke-width="50" stroke="#0EA5E9" fill="none"></path><path d="M 313.75 487 L 198.25 487" stroke-width="50" stroke="#F97316" fill="none"></path><path d="M 198.25 487 L 82.75 487" stroke-width="50" stroke="#7C3AED" fill="none"></path><path d="M 82.75 487 L 25 487 L 25 429.25" stroke-width="50" stroke="#CA8A04" fill="none"></path><path d="M 25 429.25 L 25 313.75" stroke-width="50" stroke="#EC4899" fill="none"></path><path d="M 25 313.75 L 25 198.25" stroke-width="50" stroke="#059669" fill="none"></path><path d="M 25 198.25 L 25 82.75" stroke-width="50" stroke="#A855F7" fill="none"></path><path d="M 25 82.75 L 25 25 L 82.75 25" stroke-width="50" stroke="#F97316" fill="none"></path><line x1="82.75" y1="0" x2="82.75" y2="50" stroke-width="4" stroke="#25282c"></line><line x1="198.25" y1="0" x2="198.25" y2="50" stroke-width="4" stroke="#25282c"></line><line x1="313.75" y1="0" x2="313.75" y2="50" stroke-width="4" stroke="#25282c"></line><line x1="429.25" y1="0" x2="429.25" y2="50" stroke-width="4" stroke="#25282c"></line><line x1="82.75" y1="462" x2="82.75" y2="512" stroke-width="4" stroke="#25282c"></line><line x1="198.25" y1="462" x2="198.25" y2="512" stroke-width="4" stroke="#25282c"></line><line x1="313.75" y1="462" x2="313.75" y2="512" stroke-width="4" stroke="#25282c"></line><line x1="429.25" y1="462" x2="429.25" y2="512" stroke-width="4" stroke="#25282c"></line><line x1="0" y1="82.75" x2="50" y2="82.75" stroke-width="4" stroke="#25282c"></line><line x1="0" y1="198.25" x2="50" y2="198.25" stroke-width="4" stroke="#25282c"></line><line x1="0" y1="313.75" x2="50" y2="313.75" stroke-width="4" stroke="#25282c"></line><line x1="0" y1="429.25" x2="50" y2="429.25" stroke-width="4" stroke="#25282c"></line><line x1="462" y1="82.75" x2="512" y2="82.75" stroke-width="4" stroke="#25282c"></line><line x1="462" y1="198.25" x2="512" y2="198.25" stroke-width="4" stroke="#25282c"></line><line x1="462" y1="313.75" x2="512" y2="313.75" stroke-width="4" stroke="#25282c"></line><line x1="462" y1="429.25" x2="512" y2="429.25" stroke-width="4" stroke="#25282c"></line><rect x="2" y="2" width="508" height="508" stroke-width="4" stroke="#25282c" fill="none"></rect><rect x="50" y="50" width="412" height="412" stroke-width="4" stroke="#25282c" fill="none"></rect><line x1="50" y1="50" x2="462" y2="462" stroke-width="4" stroke="#25282c"></line><line x1="50" y1="462" x2="462" y2="50" stroke-width="4" stroke="#25282c"></line><line x1="50" y1="256" x2="256" y2="50" stroke-width="4" stroke="#25282c"></line><line x1="256" y1="462" x2="462" y2="256" stroke-width="4" stroke="#25282c"></line><line x1="50" y1="256" x2="256" y2="462" stroke-width="4" stroke="#25282c"></line><line x1="256" y1="50" x2="462" y2="256" stroke-width="4" stroke="#25282c"></line><circle cx="212.39696961967" cy="93.60303038033001" r="16" fill="#EF4444" stroke-width="4" stroke="#25282c"></circle><circle cx="191.18376618407356" cy="191.18376618407356" r="16" fill="#3B82F6" stroke-width="4" stroke="#25282c"></circle><circle cx="113.40202025355335" cy="192.59797974644667" r="16" fill="#8B5CF6" stroke-width="4" stroke="#25282c"></circle><circle cx="89.3603896932107" cy="89.36038969321072" r="16" fill="#F59E0B" stroke-width="4" stroke="#25282c"></circle><circle cx="422.6396103067893" cy="89.36038969321072" r="16" fill="#F59E0B" stroke-width="4" stroke="#25282c"></circle><circle cx="398.59797974644664" cy="192.59797974644664" r="16" fill="#8B5CF6" stroke-width="4" stroke="#25282c"></circle><circle cx="312.3309524416879" cy="199.66904755831214" r="16" fill="#7C3AED" stroke-width="4" stroke="#25282c"></circle><circle cx="322.2304473782995" cy="116.23044737829953" r="16" fill="#F56420" stroke-width="4" stroke="#25282c"></circle><circle cx="404.25483399593907" cy="313.74516600406093" r="16" fill="#0EA5E9" stroke-width="4" stroke="#25282c"></circle><circle cx="392.94112549695427" cy="392.94112549695427" r="16" fill="#F97316" stroke-width="4" stroke="#25282c"></circle><circle cx="312.3309524416879" cy="405.6690475583121" r="16" fill="#7C3AED" stroke-width="4" stroke="#25282c"></circle><circle cx="326.4730880654188" cy="326.47308806541884" r="16" fill="#CA8A04" stroke-width="4" stroke="#25282c"></circle><circle cx="181.2842712474619" cy="330.7157287525381" r="16" fill="#EC4899" stroke-width="4" stroke="#25282c"></circle><circle cx="182.698484809835" cy="388.698484809835" r="16" fill="#059669" stroke-width="4" stroke="#25282c"></circle><circle cx="109.15937956643405" cy="402.84062043356596" r="16" fill="#A855F7" stroke-width="4" stroke="#25282c"></circle><circle cx="119.05887450304571" cy="325.05887450304573" r="16" fill="#F97316" stroke-width="4" stroke="#25282c"></circle><circle r="24" cx="153" cy="153" stroke-width="4" stroke="#25282c" fill="#e11d48"></circle><circle r="24" cx="359" cy="153" stroke-width="4" stroke="#25282c" fill="#e11d48"></circle><circle r="24" cx="359" cy="359" stroke-width="4" stroke="#25282c" fill="#e11d48"></circle><circle r="24" cx="153" cy="359" stroke-width="4" stroke="#25282c" fill="#e11d48"></circle><circle r="24" cx="256" cy="256" stroke-width="4" stroke="#25282c" fill="#e11d48"></circle></svg>