<svg viewBox="0 0 512 512" height="512" width="512" xmlns="http://www.w3.org/2000/svg" xmlns:xlink="http://www.w3.org/1999/xlink"><rect x="0" y="0" width="512" height="512" fill="#99f6e4"></rect><path d="M 82.75 25 L 198.25 25" stroke-width="50" stroke="#84CC16" fill="none"></path><path d="M 198.25 25 L 313.75 25" stroke-width="50" stroke="#EAB308" fill="none"></path><path d="M 313.75 25 L 429.25 25" stroke-width="50" stroke="#EAB308" fill="none"></path><path d="M 429.25 25 L 487 25 L 487 82.75" stroke-width="50" stroke="#8B5CF6" fill="none"></path><path d="M 487 82.75 L 487 198.25" stroke-width="50" stroke="#84CC16" fill="none"></path><path d="M 487 198.25 L 487 313.75" stroke-width="50" stroke="#EAB308" fill="none"></path><path d="M 487 313.75 L 487 429.25" stroke-width="50" stroke="#3B82F6" fill="none"></path><path d="M 487 429.25 L 487 487 L 429.25 487" stroke-width="50" stroke="#059669" fill="none"></path><path d="M 429.25 487 L 313.75 487" stroke-width="50" stroke="#F56420" fill="none"></path><path d="M 313.75 487 L 198.25 487" stroke-width="50" stroke="#CA8A04" fill="none"></path><path d="M 198.25 487 L 82.75 487" stroke-width="50" stroke="#84CC16" fill="none"></path><path d="M 82.75 487 L 25 487 L 25 429.25" stroke-width="50" stroke="#3B82F6" fill="none"></path><path d="M 25 429.25 L 25 313.75" stroke-width="50" stroke="#7C3AED" fill="none"></path><path d="M 25 313.75 L 25 198.25" stroke-width="50" stroke="#0284C7" fill="none"></path><path d="M 25 198.25 L 25 82.75" stroke-width="50" stroke="#84CC16" fill="none"></path><path d="M 25 82.75 L 25 25 L 82.75 25" stroke-width="50" stroke="#DB2777" fill="none"></path><line x1="82.75" y1="0" x2="82.75" y2="50" stroke-width="4" stroke="#25282c"></line><line x1="198.25" y1="0" x2="198.25" y2="50" stroke-width="4" stroke="#25282c"></line><line x1="313.75" y1="0" x2="313.75" y2="50" stroke-width="4" stroke="#25282c"></line><line x1="429.25" y1="0" x2="429.25" y2="50" stroke-width="4" stroke="#25282c"></line><line x1="82.75" y1="462" x2="82.75" y2="512" stroke-width="4" stroke="#25282c"></line><line x1="198.25" y1="462" x2="198.25" y2="512" stroke-width="4" stroke="#25282c"></line><line x1="313.75" y1="462" x2="313.75" y2="512" stroke-width="4" stroke="#25282c"></line><line x1="429.25" y1="462" x2="429.25" y2="512" stroke-width="4" stroke="#25282c"></line><line x1="0" y1="82.75" x2="50" y2="82.75" stroke-width="4" stroke="#25282c"></line><line x1="0" y1="198.25" x2="50" y2="198.25" stroke-width="4" stroke="#25282c"></line><line x1="0" y1="313.75" x2="50" y2="313.75" stroke-width="4" stroke="#25282c"></line><line x1="0" y1="429.25" x2="50" y2="429.25" stroke-width="4" stroke="#25282c"></line><line x1="462" y1="82.75" x2="512" y2="82.75" stroke-width="4" stroke="#25282c"></line><line x1="462" y1="198.25" x2="512" y2="198.25" stroke-width="4" stroke="#25282c"></line><line x1="462" y1="313.75" x2="512" y2="313.75" stroke-width="4" stroke="#25282c"></line><line x1="462" y1="429.25" x2="512" y2="429.25" stroke-width="4" stroke="#25282c"></line><rect x="2" y="2" width="508" height="508" stroke-width="4" stroke="#25282c" fill="none"></rect><rect x="50" y="50" width="412" height="412" stroke-width="4" stroke="#25282c" fill="none"></rect><line x1="50" y1="50" x2="462" y2="462" stroke-width="4" stroke="#25282c"></line><line x1="50" y1="462" x2="462" y2="50" stroke-width="4" stroke="#25282c"></line><line x1="50" y1="256" x2="256" y2="50" stroke-width="4" stroke="#25282c"></line><line x1="256" y1="462" x2="462" y2="256" stroke-width="4" stroke="#25282c"></line><line x1="50" y1="256" x2="256" y2="462" stroke-width="4" stroke="#25282c"></line><line x1="256" y1="50" x2="462" y2="256" stroke-width="4" stroke="#25282c"></line><circle cx="201.08326112068522" cy="104.91673887931478" r="16" fill="#84CC16" stroke-width="4" stroke="#25282c"></circle><circle cx="184.1126983722081" cy="184.1126983722081" r="16" fill="#EAB308" stroke-width="4" stroke="#25282c"></circle><circle cx="121.88730162779191" cy="184.1126983722081" r="16" fill="#EAB308" stroke-width="4" stroke="#25282c"></circle><circle cx="113.40202025355333" cy="113.40202025355335" r="16" fill="#8B5CF6" stroke-width="4" stroke="#25282c"></circle><circle cx="407.0832611206852" cy="104.91673887931478" r="16" fill="#84CC16" stroke-width="4" stroke="#25282c"></circle><circle cx="390.1126983722081" cy="184.1126983722081" r="16" fill="#EAB308" stroke-width="4" stroke="#25282c"></circle><circle cx="320.81623381592647" cy="191.18376618407356" r="16" fill="#3B82F6" stroke-width="4" stroke="#25282c"></circle><circle cx="329.301515190165" cy="123.301515190165" r="16" fill="#059669" stroke-width="4" stroke="#25282c"></circle><circle cx="395.7695526217005" cy="322.2304473782995" r="16" fill="#F56420" stroke-width="4" stroke="#25282c"></circle><circle cx="391.52691193458116" cy="391.52691193458116" r="16" fill="#CA8A04" stroke-width="4" stroke="#25282c"></circle><circle cx="310.9167388793148" cy="407.0832611206852" r="16" fill="#84CC16" stroke-width="4" stroke="#25282c"></circle><circle cx="320.8162338159264" cy="320.81623381592647" r="16" fill="#3B82F6" stroke-width="4" stroke="#25282c"></circle><circle cx="199.66904755831214" cy="312.3309524416879" r="16" fill="#7C3AED" stroke-width="4" stroke="#25282c"></circle><circle cx="202.49747468305833" cy="408.49747468305833" r="16" fill="#0284C7" stroke-width="4" stroke="#25282c"></circle><circle cx="104.91673887931478" cy="407.0832611206852" r="16" fill="#84CC16" stroke-width="4" stroke="#25282c"></circle><circle cx="111.98780669118023" cy="317.98780669118025" r="16" fill="#DB2777" stroke-width="4" stroke="#25282c"></circle><circle r="16" cx="153" cy="153" stroke-width="4" stroke="#25282c" fill="#0d9488"></circle><circle r="16" cx="359" cy="153" stroke-width="4" stroke="#25282c" fill="#0d9488"></circle><circle r="16" cx="359" cy="359" stroke-width="4" stroke="#25282c" fill="#0d9488"></circle><circle r="16" cx="153" cy="359" stroke-width="4" stroke="#25282c" fill="#0d9488"></circle><circle r="16" cx="256" cy="256" stroke-width="4" stroke="#25282c" fill="#0d9488"></circle></svg>