<svg viewBox="0 0 512 512" height="512" width="512" xmlns="http://www.w3.org/2000/svg" xmlns:xlink="http://www.w3.org/1999/xlink"><rect x="0" y="0" width="512" height="512" fill="#ddd6fe"></rect><path d="M 82.75 25 L 198.25 25" stroke-width="50" stroke="#F97316" fill="none"></path><path d="M 198.25 25 L 313.75 25" stroke-width="50" stroke="#84CC16" fill="none"></path><path d="M 313.75 25 L 429.25 25" stroke-width="50" stroke="#DB2777" fill="none"></path><path d="M 429.25 25 L 487 25 L 487 82.75" stroke-width="50" stroke="#0EA5E9" fill="none"></path><path d="M 487 82.75 L 487 198.25" stroke-width="50" stroke="#3B82F6" fill="none"></path><path d="M 487 198.25 L 487 313.75" stroke-width="50" stroke="#7C3AED" fill="none"></path><path d="M 487 313.75 L 487 429.25" stroke-width="50" stroke="#E14389" fill="none"></path><path d="M 487 429.25 L 487 487 L 429.25 487" stroke-width="50" stroke="#3B82F6" fill="none"></path><path d="M 429.25 487 L 313.75 487" stroke-width="50" stroke="#E14389" fill="none"></path><path d="M 313.75 487 L 198.25 487" stroke-width="50" stroke="#DC2626" fill="none"></path><path d="M 198.25 487 L 82.75 487" stroke-width="50" stroke="#F97316" fill="none"></path><path d="M 82.75 487 L 25 487 L 25 429.25" stroke-width="50" stroke="#DC2626" fill="none"></path><path d="M 25 429.25 L 25 313.75" stroke-width="50" stroke="#0284C7" fill="none"></path><path d="M 25 313.75 L 25 198.25" stroke-width="50" stroke="#84CC16" fill="none"></path><path d="M 25 198.25 L 25 82.75" stroke-width="50" stroke="#0284C7" fill="none"></path><path d="M 25 82.75 L 25 25 L 82.75 25" stroke-width="50" stroke="#0284C7" fill="none"></path><line x1="82.75" y1="0" x2="82.75" y2="50" stroke-width="4" stroke="#25282c"></line><line x1="198.25" y1="0" x2="198.25" y2="50" stroke-width="4" stroke="#25282c"></line><line x1="313.75" y1="0" x2="313.75" y2="50" stroke-width="4" stroke="#25282c"></line><line x1="429.25" y1="0" x2="429.25" y2="50" stroke-width="4" stroke="#25282c"></line><line x1="82.75" y1="462" x2="82.75" y2="512" stroke-width="4" stroke="#25282c"></line><line x1="198.25" y1="462" x2="198.25" y2="512" stroke-width="4" stroke="#25282c"></line><line x1="313.75" y1="462" x2="313.75" y2="512" stroke-width="4" stroke="#25282c"></line><line x1="429.25" y1="462" x2="429.25" y2="512" stroke-width="4" stroke="#25282c"></line><line x1="0" y1="82.75" x2="50" y2="82.75" stroke-width="4" stroke="#25282c"></line><line x1="0" y1="198.25" x2="50" y2="198.25" stroke-width="4" stroke="#25282c"></line><line x1="0" y1="313.75" x2="50" y2="313.75" stroke-width="4" stroke="#25282c"></line><line x1="0" y1="429.25" x2="50" y2="429.25" stroke-width="4" stroke="#25282c"></line><line x1="462" y1="82.75" x2="512" y2="82.75" stroke-width="4" stroke="#25282c"></line><line x1="462" y1="198.25" x2="512" y2="198.25" stroke-width="4" stroke="#25282c"></line><line x1="462" y1="313.75" x2="512" y2="313.75" stroke-width="4" stroke="#25282c"></line><line x1="462" y1="429.25" x2="512" y2="429.25" stroke-width="4" stroke="#25282c"></line><rect x="2" y="2" width="508" height="508" stroke-width="4" stroke="#25282c" fill="none"></rect><rect x="50" y="50" width="412" height="412" stroke-width="4" stroke="#25282c" fill="none"></rect><line x1="50" y1="50" x2="462" y2="462" stroke-width="4" stroke="#25282c"></line><line x1="50" y1="462" x2="462" y2="50" stroke-width="4" stroke="#25282c"></line><line x1="50" y1="256" x2="256" y2="50" stroke-width="4" stroke="#25282c"></line><line x1="256" y1="462" x2="462" y2="256" stroke-width="4" stroke="#25282c"></line><line x1="50" y1="256" x2="256" y2="462" stroke-width="4" stroke="#25282c"></line><line x1="256" y1="50" x2="462" y2="256" stroke-width="4" stroke="#25282c"></line><circle cx="186.94112549695427" cy="119.05887450304573" r="16" fill="#F97316" stroke-width="4" stroke="#25282c"></circle><circle cx="201.08326112068522" cy="201.08326112068522" r="16" fill="#84CC16" stroke-width="4" stroke="#25282c"></circle><circle cx="111.98780669118025" cy="194.01219330881975" r="16" fill="#DB2777" stroke-width="4" stroke="#25282c"></circle><circle cx="107.74516600406095" cy="107.74516600406096" r="16" fill="#0EA5E9" stroke-width="4" stroke="#25282c"></circle><circle cx="397.1837661840736" cy="114.81623381592644" r="16" fill="#3B82F6" stroke-width="4" stroke="#25282c"></circle><circle cx="405.6690475583121" cy="199.66904755831212" r="16" fill="#7C3AED" stroke-width="4" stroke="#25282c"></circle><circle cx="316.57359312880715" cy="195.42640687119285" r="16" fill="#E14389" stroke-width="4" stroke="#25282c"></circle><circle cx="320.8162338159264" cy="114.81623381592644" r="16" fill="#3B82F6" stroke-width="4" stroke="#25282c"></circle><circle cx="401.42640687119285" cy="316.57359312880715" r="16" fill="#E14389" stroke-width="4" stroke="#25282c"></circle><circle cx="394.3553390593274" cy="394.3553390593274" r="16" fill="#DC2626" stroke-width="4" stroke="#25282c"></circle><circle cx="325.05887450304573" cy="392.94112549695427" r="16" fill="#F97316" stroke-width="4" stroke="#25282c"></circle><circle cx="323.6446609406726" cy="323.6446609406726" r="16" fill="#DC2626" stroke-width="4" stroke="#25282c"></circle><circle cx="202.49747468305833" cy="309.50252531694167" r="16" fill="#0284C7" stroke-width="4" stroke="#25282c"></circle><circle cx="201.08326112068522" cy="407.0832611206852" r="16" fill="#84CC16" stroke-width="4" stroke="#25282c"></circle><circle cx="103.50252531694167" cy="408.49747468305833" r="16" fill="#0284C7" stroke-width="4" stroke="#25282c"></circle><circle cx="103.50252531694167" cy="309.50252531694167" r="16" fill="#0284C7" stroke-width="4" stroke="#25282c"></circle><circle r="16" cx="153" cy="153" stroke-width="4" stroke="#25282c" fill="#7c3aed"></circle><circle r="16" cx="359" cy="153" stroke-width="4" stroke="#25282c" fill="#7c3aed"></circle><circle r="16" cx="359" cy="359" stroke-width="4" stroke="#25282c" fill="#7c3aed"></circle><circle r="16" cx="153" cy="359" stroke-width="4" stroke="#25282c" fill="#7c3aed"></circle><circle r="16" cx="256" cy="256" stroke-width="4" stroke="#25282c" fill="#7c3aed"></circle></svg>