<svg viewBox="0 0 512 512" height="512" width="512" xmlns="http://www.w3.org/2000/svg" xmlns:xlink="http://www.w3.org/1999/xlink"><rect x="0" y="0" width="512" height="512" fill="#fecaca"></rect><path d="M 82.75 25 L 198.25 25" stroke-width="50" stroke="#059669" fill="none"></path><path d="M 198.25 25 L 313.75 25" stroke-width="50" stroke="#DC2626" fill="none"></path><path d="M 313.75 25 L 429.25 25" stroke-width="50" stroke="#059669" fill="none"></path><path d="M 429.25 25 L 487 25 L 487 82.75" stroke-width="50" stroke="#EAB308" fill="none"></path><path d="M 487 82.75 L 487 198.25" stroke-width="50" stroke="#DC2626" fill="none"></path><path d="M 487 198.25 L 487 313.75" stroke-width="50" stroke="#0284C7" fill="none"></path><path d="M 487 313.75 L 487 429.25" stroke-width="50" stroke="#EC4899" fill="none"></path><path d="M 487 429.25 L 487 487 L 429.25 487" stroke-width="50" stroke="#F56420" fill="none"></path><path d="M 429.25 487 L 313.75 487" stroke-width="50" stroke="#EAB308" fill="none"></path><path d="M 313.75 487 L 198.25 487" stroke-width="50" stroke="#84CC16" fill="none"></path><path d="M 198.25 487 L 82.75 487" stroke-width="50" stroke="#DC2626" fill="none"></path><path d="M 82.75 487 L 25 487 L 25 429.25" stroke-width="50" stroke="#EC4899" fill="none"></path><path d="M 25 429.25 L 25 313.75" stroke-width="50" stroke="#8B5CF6" fill="none"></path><path d="M 25 313.75 L 25 198.25" stroke-width="50" stroke="#84CC16" fill="none"></path><path d="M 25 198.25 L 25 82.75" stroke-width="50" stroke="#DB2777" fill="none"></path><path d="M 25 82.75 L 25 25 L 82.75 25" stroke-width="50" stroke="#CA8A04" fill="none"></path><line x1="82.75" y1="0" x2="82.75" y2="50" stroke-width="4" stroke="#25282c"></line><line x1="198.25" y1="0" x2="198.25" y2="50" stroke-width="4" stroke="#25282c"></line><line x1="313.75" y1="0" x2="313.75" y2="50" stroke-width="4" stroke="#25282c"></line><line x1="429.25" y1="0" x2="429.25" y2="50" stroke-width="4" stroke="#25282c"></line><line x1="82.75" y1="462" x2="82.75" y2="512" stroke-width="4" stroke="#25282c"></line><line x1="198.25" y1="462" x2="198.25" y2="512" stroke-width="4" stroke="#25282c"></line><line x1="313.75" y1="462" x2="313.75" y2="512" stroke-width="4" stroke="#25282c"></line><line x1="429.25" y1="462" x2="429.25" y2="512" stroke-width="4" stroke="#25282c"></line><line x1="0" y1="82.75" x2="50" y2="82.75" stroke-width="4" stroke="#25282c"></line><line x1="0" y1="198.25" x2="50" y2="198.25" stroke-width="4" stroke="#25282c"></line><line x1="0" y1="313.75" x2="50" y2="313.75" stroke-width="4" stroke="#25282c"></line><line x1="0" y1="429.25" x2="50" y2="429.25" stroke-width="4" stroke="#25282c"></line><line x1="462" y1="82.75" x2="512" y2="82.75" stroke-width="4" stroke="#25282c"></line><line x1="462" y1="198.25" x2="512" y2="198.25" stroke-width="4" stroke="#25282c"></line><line x1="462" y1="313.75" x2="512" y2="313.75" stroke-width="4" stroke="#25282c"></line><line x1="462" y1="429.25" x2="512" y2="429.25" stroke-width="4" stroke="#25282c"></line><rect x="2" y="2" width="508" height="508" stroke-width="4" stroke="#25282c" fill="none"></rect><rect x="50" y="50" width="412" height="412" stroke-width="4" stroke="#25282c" fill="none"></rect><line x1="50" y1="50" x2="462" y2="462" stroke-width="4" stroke="#25282c"></line><line x1="50" y1="462" x2="462" y2="50" stroke-width="4" stroke="#25282c"></line><line x1="50" y1="256" x2="256" y2="50" stroke-width="4" stroke="#25282c"></line><line x1="256" y1="462" x2="462" y2="256" stroke-width="4" stroke="#25282c"></line><line x1="50" y1="256" x2="256" y2="462" stroke-width="4" stroke="#25282c"></line><line x1="256" y1="50" x2="462" y2="256" stroke-width="4" stroke="#25282c"></line><circle cx="182.698484809835" cy="123.301515190165" r="16" fill="#059669" stroke-width="4" stroke="#25282c"></circle><circle cx="188.35533905932738" cy="188.35533905932738" r="16" fill="#DC2626" stroke-width="4" stroke="#25282c"></circle><circle cx="123.301515190165" cy="182.698484809835" r="16" fill="#059669" stroke-width="4" stroke="#25282c"></circle><circle cx="121.8873016277919" cy="121.88730162779191" r="16" fill="#EAB308" stroke-width="4" stroke="#25282c"></circle><circle cx="394.3553390593274" cy="117.64466094067262" r="16" fill="#DC2626" stroke-width="4" stroke="#25282c"></circle><circle cx="408.49747468305833" cy="202.49747468305833" r="16" fill="#0284C7" stroke-width="4" stroke="#25282c"></circle><circle cx="330.7157287525381" cy="181.2842712474619" r="16" fill="#EC4899" stroke-width="4" stroke="#25282c"></circle><circle cx="322.2304473782995" cy="116.23044737829953" r="16" fill="#F56420" stroke-width="4" stroke="#25282c"></circle><circle cx="390.1126983722081" cy="327.8873016277919" r="16" fill="#EAB308" stroke-width="4" stroke="#25282c"></circle><circle cx="407.0832611206852" cy="407.0832611206852" r="16" fill="#84CC16" stroke-width="4" stroke="#25282c"></circle><circle cx="323.6446609406726" cy="394.3553390593274" r="16" fill="#DC2626" stroke-width="4" stroke="#25282c"></circle><circle cx="330.7157287525381" cy="330.7157287525381" r="16" fill="#EC4899" stroke-width="4" stroke="#25282c"></circle><circle cx="192.59797974644667" cy="319.40202025355336" r="16" fill="#8B5CF6" stroke-width="4" stroke="#25282c"></circle><circle cx="201.08326112068522" cy="407.0832611206852" r="16" fill="#84CC16" stroke-width="4" stroke="#25282c"></circle><circle cx="111.98780669118025" cy="400.01219330881975" r="16" fill="#DB2777" stroke-width="4" stroke="#25282c"></circle><circle cx="120.4730880654188" cy="326.47308806541884" r="16" fill="#CA8A04" stroke-width="4" stroke="#25282c"></circle><circle r="16" cx="153" cy="153" stroke-width="4" stroke="#25282c" fill="#dc2626"></circle><circle r="16" cx="359" cy="153" stroke-width="4" stroke="#25282c" fill="#dc2626"></circle><circle r="16" cx="359" cy="359" stroke-width="4" stroke="#25282c" fill="#dc2626"></circle><circle r="16" cx="153" cy="359" stroke-width="4" stroke="#25282c" fill="#dc2626"></circle><circle r="16" cx="256" cy="256" stroke-width="4" stroke="#25282c" fill="#dc2626"></circle></svg>