<svg viewBox="0 0 512 512" height="512" width="512" xmlns="http://www.w3.org/2000/svg" xmlns:xlink="http://www.w3.org/1999/xlink"><rect x="0" y="0" width="512" height="512" fill="#fef08a"></rect><path d="M 82.75 25 L 198.25 25" stroke-width="50" stroke="#F43F5E" fill="none"></path><path d="M 198.25 25 L 313.75 25" stroke-width="50" stroke="#06B6D4" fill="none"></path><path d="M 313.75 25 L 429.25 25" stroke-width="50" stroke="#7C3AED" fill="none"></path><path d="M 429.25 25 L 487 25 L 487 82.75" stroke-width="50" stroke="#84CC16" fill="none"></path><path d="M 487 82.75 L 487 198.25" stroke-width="50" stroke="#7C3AED" fill="none"></path><path d="M 487 198.25 L 487 313.75" stroke-width="50" stroke="#06B6D4" fill="none"></path><path d="M 487 313.75 L 487 429.25" stroke-width="50" stroke="#0EA5E9" fill="none"></path><path d="M 487 429.25 L 487 487 L 429.25 487" stroke-width="50" stroke="#06B6D4" fill="none"></path><path d="M 429.25 487 L 313.75 487" stroke-width="50" stroke="#F43F5E" fill="none"></path><path d="M 313.75 487 L 198.25 487" stroke-width="50" stroke="#06B6D4" fill="none"></path><path d="M 198.25 487 L 82.75 487" stroke-width="50" stroke="#7C3AED" fill="none"></path><path d="M 82.75 487 L 25 487 L 25 429.25" stroke-width="50" stroke="#84CC16" fill="none"></path><path d="M 25 429.25 L 25 313.75" stroke-width="50" stroke="#7C3AED" fill="none"></path><path d="M 25 313.75 L 25 198.25" stroke-width="50" stroke="#06B6D4" fill="none"></path><path d="M 25 198.25 L 25 82.75" stroke-width="50" stroke="#0EA5E9" fill="none"></path><path d="M 25 82.75 L 25 25 L 82.75 25" stroke-width="50" stroke="#06B6D4" fill="none"></path><line x1="82.75" y1="0" x2="82.75" y2="50" stroke-width="4" stroke="#25282c"></line><line x1="198.25" y1="0" x2="198.25" y2="50" stroke-width="4" stroke="#25282c"></line><line x1="313.75" y1="0" x2="313.75" y2="50" stroke-width="4" stroke="#25282c"></line><line x1="429.25" y1="0" x2="429.25" y2="50" stroke-width="4" stroke="#25282c"></line><line x1="82.75" y1="462" x2="82.75" y2="512" stroke-width="4" stroke="#25282c"></line><line x1="198.25" y1="462" x2="198.25" y2="512" stroke-width="4" stroke="#25282c"></line><line x1="313.75" y1="462" x2="313.75" y2="512" stroke-width="4" stroke="#25282c"></line><line x1="429.25" y1="462" x2="429.25" y2="512" stroke-width="4" stroke="#25282c"></line><line x1="0" y1="82.75" x2="50" y2="82.75" stroke-width="4" stroke="#25282c"></line><line x1="0" y1="198.25" x2="50" y2="198.25" stroke-width="4" stroke="#25282c"></line><line x1="0" y1="313.75" x2="50" y2="313.75" stroke-width="4" stroke="#25282c"></line><line x1="0" y1="429.25" x2="50" y2="429.25" stroke-width="4" stroke="#25282c"></line><line x1="462" y1="82.75" x2="512" y2="82.75" stroke-width="4" stroke="#25282c"></line><line x1="462" y1="198.25" x2="512" y2="198.25" stroke-width="4" stroke="#25282c"></line><line x1="462" y1="313.75" x2="512" y2="313.75" stroke-width="4" stroke="#25282c"></line><line x1="462" y1="429.25" x2="512" y2="429.25" stroke-width="4" stroke="#25282c"></line><rect x="2" y="2" width="508" height="508" stroke-width="4" stroke="#25282c" fill="none"></rect><rect x="50" y="50" width="412" height="412" stroke-width="4" stroke="#25282c" fill="none"></rect><line x1="50" y1="50" x2="462" y2="462" stroke-width="4" stroke="#25282c"></line><line x1="50" y1="462" x2="462" y2="50" stroke-width="4" stroke="#25282c"></line><line x1="50" y1="256" x2="256" y2="50" stroke-width="4" stroke="#25282c"></line><line x1="256" y1="462" x2="462" y2="256" stroke-width="4" stroke="#25282c"></line><line x1="50" y1="256" x2="256" y2="462" stroke-width="4" stroke="#25282c"></line><line x1="256" y1="50" x2="462" y2="256" stroke-width="4" stroke="#25282c"></line><circle cx="206.74011537017762" cy="99.2598846298224" r="16" fill="#F43F5E" stroke-width="4" stroke="#25282c"></circle><circle cx="215.22539674441617" cy="215.22539674441617" r="16" fill="#06B6D4" stroke-width="4" stroke="#25282c"></circle><circle cx="106.33095244168787" cy="199.66904755831214" r="16" fill="#7C3AED" stroke-width="4" stroke="#25282c"></circle><circle cx="104.91673887931475" cy="104.91673887931478" r="16" fill="#84CC16" stroke-width="4" stroke="#25282c"></circle><circle cx="405.6690475583121" cy="106.33095244168787" r="16" fill="#7C3AED" stroke-width="4" stroke="#25282c"></circle><circle cx="421.2253967444162" cy="215.22539674441617" r="16" fill="#06B6D4" stroke-width="4" stroke="#25282c"></circle><circle cx="313.74516600406093" cy="198.25483399593904" r="16" fill="#0EA5E9" stroke-width="4" stroke="#25282c"></circle><circle cx="296.7746032555838" cy="90.77460325558383" r="16" fill="#06B6D4" stroke-width="4" stroke="#25282c"></circle><circle cx="412.7401153701776" cy="305.2598846298224" r="16" fill="#F43F5E" stroke-width="4" stroke="#25282c"></circle><circle cx="421.2253967444162" cy="421.2253967444162" r="16" fill="#06B6D4" stroke-width="4" stroke="#25282c"></circle><circle cx="312.3309524416879" cy="405.6690475583121" r="16" fill="#7C3AED" stroke-width="4" stroke="#25282c"></circle><circle cx="310.9167388793148" cy="310.9167388793148" r="16" fill="#84CC16" stroke-width="4" stroke="#25282c"></circle><circle cx="199.66904755831214" cy="312.3309524416879" r="16" fill="#7C3AED" stroke-width="4" stroke="#25282c"></circle><circle cx="215.22539674441617" cy="421.2253967444162" r="16" fill="#06B6D4" stroke-width="4" stroke="#25282c"></circle><circle cx="107.74516600406096" cy="404.25483399593907" r="16" fill="#0EA5E9" stroke-width="4" stroke="#25282c"></circle><circle cx="90.7746032555838" cy="296.7746032555838" r="16" fill="#06B6D4" stroke-width="4" stroke="#25282c"></circle><circle r="24" cx="153" cy="153" stroke-width="4" stroke="#25282c" fill="#ca8a04"></circle><circle r="24" cx="359" cy="153" stroke-width="4" stroke="#25282c" fill="#ca8a04"></circle><circle r="24" cx="359" cy="359" stroke-width="4" stroke="#25282c" fill="#ca8a04"></circle><circle r="24" cx="153" cy="359" stroke-width="4" stroke="#25282c" fill="#ca8a04"></circle><circle r="24" cx="256" cy="256" stroke-width="4" stroke="#25282c" fill="#ca8a04"></circle></svg>