<svg viewBox="0 0 512 512" height="200" width="200" xmlns="http://www.w3.org/2000/svg" xmlns:xlink="http://www.w3.org/1999/xlink"><circle r="250" cx="256" cy="256" stroke-width="0" fill="#e5e7eb"></circle><path d="M 468.4922924775959 344.01718944397066 A 230 230 0 0 1 344.01718944397066 468.4922924775959" stroke-width="50" stroke="#F56420" fill="none"></path><path d="M 344.01718944397066 468.4922924775959 A 230 230 0 0 1 167.98281055602936 468.4922924775959" stroke-width="50" stroke="#F56420" fill="none"></path><path d="M 167.98281055602936 468.4922924775959 A 230 230 0 0 1 43.50770752240405 344.01718944397066" stroke-width="50" stroke="#DB2777" fill="none"></path><path d="M 43.50770752240405 344.01718944397066 A 230 230 0 0 1 43.50770752240399 167.98281055602948" stroke-width="50" stroke="#DC2626" fill="none"></path><path d="M 43.50770752240399 167.98281055602948 A 230 230 0 0 1 167.98281055602942 43.50770752240402" stroke-width="50" stroke="#0284C7" fill="none"></path><path d="M 167.98281055602942 43.50770752240402 A 230 230 0 0 1 344.0171894439707 43.507707522404075" stroke-width="50" stroke="#DB2777" fill="none"></path><path d="M 344.0171894439707 43.507707522404075 A 230 230 0 0 1 468.492292477596 167.9828105560294" stroke-width="50" stroke="#7C3AED" fill="none"></path><path d="M 468.492292477596 167.9828105560294 A 230 230 0 0 1 468.49229247759604 344.0171894439705" stroke-width="50" stroke="#8B5CF6" fill="none"></path><line x1="490.66540125786685" y1="353.2015918207328" x2="448.1669427623476" y2="335.59815393193867" stroke-width="4" stroke="#25282c"></line><line x1="353.2015918207328" y1="490.66540125786685" x2="335.59815393193867" y2="448.1669427623476" stroke-width="4" stroke="#25282c"></line><line x1="158.7984081792672" y1="490.66540125786685" x2="176.40184606806133" y2="448.1669427623476" stroke-width="4" stroke="#25282c"></line><line x1="21.33459874213318" y1="353.2015918207328" x2="63.833057237652355" y2="335.59815393193867" stroke-width="4" stroke="#25282c"></line><line x1="21.334598742133124" y1="158.79840817926734" x2="63.833057237652326" y2="176.40184606806145" stroke-width="4" stroke="#25282c"></line><line x1="158.79840817926726" y1="21.334598742133153" x2="176.4018460680614" y2="63.833057237652326" stroke-width="4" stroke="#25282c"></line><line x1="353.20159182073286" y1="21.33459874213321" x2="335.5981539319387" y2="63.83305723765238" stroke-width="4" stroke="#25282c"></line><line x1="490.66540125786685" y1="158.79840817926726" x2="448.1669427623477" y2="176.4018460680614" stroke-width="4" stroke="#25282c"></line><circle r="254" cx="256" cy="256" stroke-width="4" stroke="#25282c" fill="none"></circle><circle r="208" cx="256" cy="256" stroke-width="4" stroke="#25282c" fill="none"></circle><line x1="256" y1="256" x2="403.07821048680194" y2="403.0782104868019" stroke-width="4" stroke="#25282c"></line><line x1="256" y1="256" x2="256" y2="464" stroke-width="4" stroke="#25282c"></line><line x1="256" y1="256" x2="108.92178951319812" y2="403.07821048680194" stroke-width="4" stroke="#25282c"></line><line x1="256" y1="256" x2="48" y2="256" stroke-width="4" stroke="#25282c"></line><line x1="256" y1="256" x2="108.92178951319809" y2="108.92178951319812" stroke-width="4" stroke="#25282c"></line><line x1="256" y1="256" x2="255.99999999999997" y2="48" stroke-width="4" stroke="#25282c"></line><line x1="256" y1="256" x2="403.0782104868018" y2="108.92178951319809" stroke-width="4" stroke="#25282c"></line><line x1="256" y1="256" x2="464" y2="255.99999999999994" stroke-width="4" stroke="#25282c"></line><circle cx="312.5685424949238" cy="312.5685424949238" r="20" fill="#F56420" stroke-width="4" stroke="#25282c"></circle><circle cx="256" cy="336" r="20" fill="#F56420" stroke-width="4" stroke="#25282c"></circle><circle cx="188.824855787278" cy="323.175144212722" r="20" fill="#DB2777" stroke-width="4" stroke="#25282c"></circle><circle cx="181" cy="256" r="20" fill="#DC2626" stroke-width="4" stroke="#25282c"></circle><circle cx="167.61165235168153" cy="167.61165235168158" r="20" fill="#0284C7" stroke-width="4" stroke="#25282c"></circle><circle cx="255.99999999999997" cy="161" r="20" fill="#DB2777" stroke-width="4" stroke="#25282c"></circle><circle cx="337.31727983645294" cy="174.682720163547" r="20" fill="#7C3AED" stroke-width="4" stroke="#25282c"></circle><circle cx="346" cy="255.99999999999997" r="20" fill="#8B5CF6" stroke-width="4" stroke="#25282c"></circle><circle r="30" cx="256" cy="256" stroke-width="4" stroke="#25282c" fill="#4b5563"></circle></svg>