<svg viewBox="0 0 512 512" height="512" width="512" xmlns="http://www.w3.org/2000/svg" xmlns:xlink="http://www.w3.org/1999/xlink"><circle r="250" cx="256" cy="256" stroke-width="0" fill="#e5e7eb"></circle><path d="M 468.4922924775959 344.01718944397066 A 230 230 0 0 1 344.01718944397066 468.4922924775959" stroke-width="50" stroke="#A855F7" fill="none"></path><path d="M 344.01718944397066 468.4922924775959 A 230 230 0 0 1 167.98281055602936 468.4922924775959" stroke-width="50" stroke="#F97316" fill="none"></path><path d="M 167.98281055602936 468.4922924775959 A 230 230 0 0 1 43.50770752240405 344.01718944397066" stroke-width="50" stroke="#0EA5E9" fill="none"></path><path d="M 43.50770752240405 344.01718944397066 A 230 230 0 0 1 43.50770752240399 167.98281055602948" stroke-width="50" stroke="#84CC16" fill="none"></path><path d="M 43.50770752240399 167.98281055602948 A 230 230 0 0 1 167.98281055602942 43.50770752240402" stroke-width="50" stroke="#7C3AED" fill="none"></path><path d="M 167.98281055602942 43.50770752240402 A 230 230 0 0 1 344.0171894439707 43.507707522404075" stroke-width="50" stroke="#8B5CF6" fill="none"></path><path d="M 344.0171894439707 43.507707522404075 A 230 230 0 0 1 468.492292477596 167.9828105560294" stroke-width="50" stroke="#F43F5E" fill="none"></path><path d="M 468.492292477596 167.9828105560294 A 230 230 0 0 1 468.49229247759604 344.0171894439705" stroke-width="50" stroke="#3B82F6" fill="none"></path><line x1="490.66540125786685" y1="353.2015918207328" x2="448.1669427623476" y2="335.59815393193867" stroke-width="4" stroke="#25282c"></line><line x1="353.2015918207328" y1="490.66540125786685" x2="335.59815393193867" y2="448.1669427623476" stroke-width="4" stroke="#25282c"></line><line x1="158.7984081792672" y1="490.66540125786685" x2="176.40184606806133" y2="448.1669427623476" stroke-width="4" stroke="#25282c"></line><line x1="21.33459874213318" y1="353.2015918207328" x2="63.833057237652355" y2="335.59815393193867" stroke-width="4" stroke="#25282c"></line><line x1="21.334598742133124" y1="158.79840817926734" x2="63.833057237652326" y2="176.40184606806145" stroke-width="4" stroke="#25282c"></line><line x1="158.79840817926726" y1="21.334598742133153" x2="176.4018460680614" y2="63.833057237652326" stroke-width="4" stroke="#25282c"></line><line x1="353.20159182073286" y1="21.33459874213321" x2="335.5981539319387" y2="63.83305723765238" stroke-width="4" stroke="#25282c"></line><line x1="490.66540125786685" y1="158.79840817926726" x2="448.1669427623477" y2="176.4018460680614" stroke-width="4" stroke="#25282c"></line><circle r="254" cx="256" cy="256" stroke-width="4" stroke="#25282c" fill="none"></circle><circle r="208" cx="256" cy="256" stroke-width="4" stroke="#25282c" fill="none"></circle><line x1="256" y1="256" x2="403.07821048680194" y2="403.0782104868019" stroke-width="4" stroke="#25282c"></line><line x1="256" y1="256" x2="256" y2="464" stroke-width="4" stroke="#25282c"></line><line x1="256" y1="256" x2="108.92178951319812" y2="403.07821048680194" stroke-width="4" stroke="#25282c"></line><line x1="256" y1="256" x2="48" y2="256" stroke-width="4" stroke="#25282c"></line><line x1="256" y1="256" x2="108.92178951319809" y2="108.92178951319812" stroke-width="4" stroke="#25282c"></line><line x1="256" y1="256" x2="255.99999999999997" y2="48" stroke-width="4" stroke="#25282c"></line><line x1="256" y1="256" x2="403.0782104868018" y2="108.92178951319809" stroke-width="4" stroke="#25282c"></line><line x1="256" y1="256" x2="464" y2="255.99999999999994" stroke-width="4" stroke="#25282c"></line><circle cx="330.2462120245875" cy="330.24621202458746" r="20" fill="#A855F7" stroke-width="4" stroke="#25282c"></circle><circle cx="256" cy="326" r="20" fill="#F97316" stroke-width="4" stroke="#25282c"></circle><circle cx="178.21825406947977" cy="333.78174593052023" r="20" fill="#0EA5E9" stroke-width="4" stroke="#25282c"></circle><circle cx="136" cy="256" r="20" fill="#84CC16" stroke-width="4" stroke="#25282c"></circle><circle cx="174.682720163547" cy="174.68272016354706" r="20" fill="#7C3AED" stroke-width="4" stroke="#25282c"></circle><circle cx="255.99999999999997" cy="166" r="20" fill="#8B5CF6" stroke-width="4" stroke="#25282c"></circle><circle cx="354.99494936611666" cy="157.00505063388334" r="20" fill="#F43F5E" stroke-width="4" stroke="#25282c"></circle><circle cx="341" cy="255.99999999999997" r="20" fill="#3B82F6" stroke-width="4" stroke="#25282c"></circle><circle r="30" cx="256" cy="256" stroke-width="4" stroke="#25282c" fill="#4b5563"></circle></svg>